<svg id="Livello_1" data-name="Livello 1" xmlns="http://www.w3.org/2000/svg" viewBox="0 0 425.61 440.64"><defs><style>.cls-1{fill:#010101;}.cls-2{fill:#fff;}</style></defs><title>bishop_white</title><g id="g2438"><path id="path2437" class="cls-1" d="M55.84,453.07c-9.55-9.48-17.61-18.24-17.91-19.45-1.07-4.23,1.21-7.7,9.36-14.29a141.79,141.79,0,0,1,53.78-27.07c17.32-4.5,25.91-5.19,55-4.44,34.27.88,48.69-1,59.9-7.85l3.9-2.38-7.9-1.72A210.6,210.6,0,0,1,167.52,360c-18-9-17.35-6.19-8.87-39.92,3.77-15,6.86-27.69,6.86-28.24s-2.49-2.78-5.54-5c-14.79-10.59-26.22-27.83-31.62-47.69-1.83-6.71-2.25-10.77-2.19-20.84.1-15,2.21-23.91,8.9-37.66,10.54-21.67,24.7-35.68,64-63.36,13.42-9.45,24.47-17.58,32.25-23.69,1.34-1.05.86-1.86-3.55-6-7.29-6.85-10.69-14.57-10.69-24.3,0-13.44,7.41-24.62,20.49-30.85a31.78,31.78,0,0,1,26,0c8.15,3.88,13.45,9,17.21,16.64,6.53,13.27,3.68,28.09-7.42,38.51-4.4,4.14-4.88,4.95-3.54,6,7.77,6.11,18.83,14.24,32.25,23.69,39.3,27.68,53.46,41.69,64,63.36,6.68,13.75,8.79,22.68,8.89,37.66.07,10.07-.36,14.13-2.18,20.84-5.4,19.86-16.84,37.1-31.63,47.69-3,2.19-5.54,4.42-5.53,5s3.09,13.26,6.85,28.24C351,353.79,351.58,351,333.6,360a210.6,210.6,0,0,1-44.44,15.89l-7.9,1.72,3.9,2.38c11.2,6.84,25.62,8.73,59.9,7.85,29.09-.75,37.68-.06,55,4.44a141.06,141.06,0,0,1,54,27.28c6.79,5.46,8.55,7.44,9.06,10.17a9.74,9.74,0,0,1-.37,5.26c-.56,1-8.62,9.39-17.91,18.6-11.8,11.7-17.57,16.75-19.14,16.75-2.88,0-4.67-1-12.35-6.78A116.16,116.16,0,0,0,383.54,448c-11-3.69-25.41-5.45-54-6.59-35.81-1.42-51.49-4.57-69.7-14l-9.3-4.79-9.3,4.79c-18.21,9.39-33.89,12.54-69.7,14-28.57,1.14-43,2.9-54,6.59a116.25,116.25,0,0,0-29.78,15.57c-7.68,5.8-9.47,6.78-12.35,6.78-1.58,0-7.45-5.16-19.61-17.25Z" transform="translate(-37.68 -29.68)"/><path id="path2612" class="cls-2" d="M190.29,272.89c37.34-11.7,74.28-12.54,112-2.53,6.19,1.65,13.73,3.92,16.76,5l5.52,2.07,4.81-3.53A68.66,68.66,0,0,0,350.6,188.8c-9.39-19.41-23.86-33.08-66.65-63-7.08-4.95-17.49-12.69-23.13-17.21l-10.26-8.21-10.26,8.21c-5.64,4.52-16.05,12.26-23.14,17.21-42.78,29.9-57.25,43.57-66.64,63a68.36,68.36,0,0,0,10.71,75.6c5.51,6.12,14.58,13.07,16.33,12.5.82-.27,6.55-2.07,12.73-4Z" transform="translate(-37.68 -29.68)"/><path id="path2610" class="cls-2" d="M183.29,326.37c9.39-3.83,26.3-8.57,38.27-10.74,13.21-2.39,44.8-2.39,58,0a214.41,214.41,0,0,1,37.33,10.42c4.85,1.9,9,3.25,9.28,3s-1.48-8.21-3.83-17.69c-5-20-3.48-18.27-20.08-22.93-17.93-5-30-6.57-51.7-6.57s-33.77,1.53-51.7,6.57c-16.53,4.64-15.2,3.18-19.72,21.54-2.15,8.72-4.11,16.64-4.36,17.6-.61,2.34.06,2.24,8.51-1.2Z" transform="translate(-37.68 -29.68)"/><path id="path2608" class="cls-2" d="M284.17,358.88c12-2.49,26.67-7.13,33.33-10.54l3.44-1.75-4.74-2.1c-8.42-3.72-25.87-8.93-36.14-10.77-14-2.52-45-2.52-59,0-10.27,1.84-27.73,7-36.14,10.77l-4.74,2.1,3.44,1.75c9.84,5,31.58,11,47.58,13C243.8,362.93,270.67,361.69,284.17,358.88Z" transform="translate(-37.68 -29.68)"/><path id="path2606" class="cls-2" d="M82.71,445.68c7.9-5.38,24.14-12.89,34-15.75,13.16-3.8,26.77-5.43,54.81-6.56,14-.57,28.42-1.51,32-2.08,15.16-2.42,28.82-7.65,39.92-15.26,5.57-3.82,8.59-3.82,14.16,0,11.1,7.61,24.76,12.84,39.92,15.26,3.57.57,18,1.51,32,2.08,28,1.13,41.64,2.76,54.81,6.56,9.94,2.87,26.14,10.37,34.12,15.81l5.44,3.7,8.92-8.92,8.92-8.93L433.3,426a123.28,123.28,0,0,0-43.24-18.26c-6.85-1.53-13.39-1.8-45.5-1.89-37.26-.11-37.56-.13-47.33-2.76a125.82,125.82,0,0,1-15.38-5.19c-6.41-2.94-16.48-10-20.73-14.43-2.78-3-3.33-3.11-10.56-3.11s-7.78.16-10.56,3.11c-4.25,4.48-14.32,11.49-20.74,14.43A125,125,0,0,1,203.89,403c-9.77,2.63-10.07,2.65-47.33,2.76-32.11.09-38.65.36-45.5,1.89a124.73,124.73,0,0,0-43.14,18.13l-8.66,5.65,8.88,8.92c4.89,4.91,9,8.92,9.05,8.92s2.58-1.64,5.52-3.64Z" transform="translate(-37.68 -29.68)"/><path id="path2616" class="cls-2" d="M258.64,77.05c10.64-7.17,10.64-20.28,0-27.45-9.82-6.61-24.08,1.52-24.08,13.73S248.82,83.66,258.64,77.05Z" transform="translate(-37.68 -29.68)"/><path id="path2614" class="cls-1" d="M245.47,232c-3.24-2.49-3.91-5.57-3.91-18.07V201.48L228,201.15c-13.48-.32-13.61-.35-16-3.13-3.08-3.59-3.08-7.8,0-11.39,2.39-2.78,2.53-2.81,15.92-3.13l13.52-.33.32-13.51c.33-13.39.35-13.54,3.13-15.92,3.59-3.09,7.81-3.09,11.39,0,2.78,2.38,2.81,2.53,3.13,15.92l.33,13.51,13.51.33c13.4.32,13.54.35,15.93,3.13,3.08,3.59,3.08,7.8,0,11.39-2.39,2.78-2.53,2.81-16,3.13l-13.59.33V214c0,12.5-.67,15.58-3.91,18.07-2.05,1.57-8.13,1.57-10.18,0Z" transform="translate(-37.68 -29.68)"/></g></svg>