<svg id="Livello_1" data-name="Livello 1" xmlns="http://www.w3.org/2000/svg" viewBox="0 0 406.36 422.83"><defs><style>.cls-1{fill:#010101;}.cls-2{fill:#fff;}</style></defs><title>bishop_black</title><g id="g2405"><path id="path2496" class="cls-1" d="M59.71,448.61,45,433.84l3.27-3.09C58,421.53,77,410.69,92.62,405.51,111.3,399.3,114,399,155,398.89c35.2-.11,38-.25,45.5-2.29,11.23-3,21.43-8.48,29-15.42s8.17-8.77,2.37-8.77c-6,0-27.91-4.62-38.38-8.08-12.14-4-33.5-14.51-33.5-16.46,0-.83,3.15-14.09,7-29.46s7-28.3,7-28.72-3.21-2.8-7.11-5.28c-30.93-19.63-42.46-61.82-26.4-96.62,9.66-20.92,23.9-34.9,64.14-63C224.2,111.17,241.27,98,245.84,93.12l2.33-2.51-4.11-.69c-5.8-1-13-6.15-16.52-11.93-2.68-4.35-3-5.8-3-12.58s.35-8.22,3-12.58a24.94,24.94,0,0,1,42.94,0c2.68,4.35,3,5.8,3,12.58s-.35,8.22-3,12.58c-3.56,5.78-10.72,11-16.52,11.93l-4.11.69,2.33,2.51c4.57,4.92,21.64,18,41.23,31.71,40.24,28.06,54.48,42,64.14,63,16.06,34.8,4.53,77-26.4,96.62-3.9,2.48-7.1,4.85-7.11,5.28s3.12,13.35,7,28.72,7,28.63,7,29.46c0,2-21.36,12.44-33.5,16.46-10.47,3.46-32.4,8.08-38.38,8.08-5.8,0-5.33,1.71,2.37,8.77s17.78,12.37,29,15.42c7.51,2,10.3,2.18,45.5,2.29,32,.09,38.68.37,45.5,1.89,19.49,4.33,39.19,13,53.38,23.63,13,9.68,13.32,7.33-3.68,24.3l-14.73,14.71L417.54,459A119.89,119.89,0,0,0,364,437c-5.78-.83-22-2-36-2.53s-29.52-1.72-34.43-2.58c-12.87-2.24-26.59-7.08-35.84-12.64a80.64,80.64,0,0,0-8.73-4.84,80.64,80.64,0,0,0-8.73,4.84c-9.25,5.56-23,10.4-35.84,12.64-4.91.86-20.4,2-34.43,2.58-36.43,1.45-51.08,4-68.75,12-5.3,2.39-17.31,9.86-24.78,15.4-1.93,1.43-2.77.77-16.77-13.25Z" transform="translate(-44.97 -40.59)"/><path id="path2395" class="cls-2" d="M257,214.91v-12.5h24v-15H257v-25H242v25H217v15h25v25h15Z" transform="translate(-44.97 -40.59)"/><path id="path2393" class="cls-2" d="M202.28,290.89a184,184,0,0,1,18.5-6.2c8.81-2.35,11.48-2.6,28.23-2.6s19.42.25,28.23,2.6A214.62,214.62,0,0,1,305.52,295c.86.4,7.49-10.15,7.49-11.92,0-1-9.08-5.26-18.12-8.45C278.46,268.8,267.33,267,249,267s-29.45,1.85-45.88,7.65c-9,3.19-18.12,7.42-18.12,8.45,0,1.77,6.63,12.32,7.49,11.92C193.06,294.71,197.46,292.87,202.28,290.89Z" transform="translate(-44.97 -40.59)"/><path id="path2391" class="cls-2" d="M182.33,351.54C200,339.43,226.51,331.42,249,331.42s49,8,66.68,20.12a33,33,0,0,0,4.63,2.87c.51,0,8.69-10.68,8.69-11.34,0-1.08-13.52-9-23-13.55A130.73,130.73,0,0,0,230.33,318,128.74,128.74,0,0,0,192,329.52c-9.48,4.51-23,12.47-23,13.55,0,.66,8.18,11.34,8.69,11.34A33,33,0,0,0,182.33,351.54Z" transform="translate(-44.97 -40.59)"/></g></svg>