<svg id="Livello_1" data-name="Livello 1" xmlns="http://www.w3.org/2000/svg" viewBox="0 0 437.94 430.82"><defs><style>.cls-1{fill:#010101;}.cls-2{fill:#fff;}</style></defs><title>king_black</title><g id="g2524"><g id="g2582"><path id="path2439" class="cls-1" d="M201.33,464.47c-35.66-2.27-64.83-9-89.82-20.85-12.59-5.95-11.64-2.8-8.44-28l2.23-17.5L103,372.59c-1.51-16.67-2.74-25.85-3.55-26.5s-3.89-5.73-7.13-11.5a403.46,403.46,0,0,0-31.17-47c-14.76-19.45-18.91-25.74-23.56-35.65-9.3-19.84-9.05-38.34.77-58.23a54.53,54.53,0,0,1,11.77-16.59c24.18-24.42,61-27,100.76-7,28.38,14.25,48.26,30.62,69.76,57.44,1.5,1.87.66-1.67-3.33-14-7.64-23.63-9-30.82-9-47.5,0-11.93.37-15,2.31-20.5,5.14-14.74,14.7-26.41,25.87-31.61l6.21-2.89V71.59h-33v-15h33v-22h15v22h32v15h-32v39.76l5.75,2.81c10.81,5.27,20.34,17.08,25.35,31.43,1.94,5.53,2.28,8.57,2.31,20.5,0,16.68-1.32,23.87-9,47.5-4,12.33-4.83,15.87-3.33,14,21.5-26.82,41.38-43.19,69.76-57.44,39.8-20,76.58-17.45,100.76,7a54.3,54.3,0,0,1,11.77,16.59c9.82,19.89,10.07,38.39.77,58.23-4.64,9.91-8.79,16.2-23.56,35.65a404.82,404.82,0,0,0-31.17,47c-3.24,5.77-6.44,10.95-7.13,11.5s-2,9.83-3.55,26.5l-2.31,25.5,2.23,17.5c3.19,25.17,4,22.19-7.44,27.57-14,6.6-21.08,9.14-35.89,13-16.36,4.22-35.92,7.1-57.36,8.43-19,1.18-75.38,1.14-94.43-.08Z" transform="translate(-30.79 -34.59)"/><path id="path2578" class="cls-2" d="M250.76,287.89c0-.93,6.53-21.12,14.51-44.85,15.73-46.78,18.14-55.73,19.11-70.95,1.23-19.39-3.43-34.47-13.84-44.82-7.33-7.3-11.54-9.15-20.78-9.15S236.31,120,229,127.27c-10.41,10.35-15.07,25.43-13.84,44.82,1,15.22,3.38,24.17,19.11,71,8,23.73,14.51,43.92,14.51,44.85s.45,1.7,1,1.7,1-.77,1-1.7Z" transform="translate(-30.79 -34.59)"/><path id="path2572" class="cls-2" d="M127.94,347.07c21.66-6.17,47.89-11.14,74.82-14.16,21.68-2.43,72.32-2.43,94,0,26.93,3,53.16,8,74.82,14.16,6.77,1.94,13.15,3.52,14.17,3.52,3.56,0,8-5.18,15.14-17.8a421.86,421.86,0,0,1,32.49-49.2c14.36-18.92,19-25.81,22.58-33.79,15.23-33.58-.67-71.56-34.7-82.93-7.16-2.39-9.46-2.67-22-2.65-11.86,0-15.46.41-23.57,2.59-26.07,7-51.67,22.59-74.4,45.29-13.23,13.2-22.79,25.93-30.44,40.52-5.52,10.53-10.12,26.64-14.27,49.92l-2.32,13.05h-9l-2.32-13.05c-4.15-23.28-8.75-39.39-14.27-49.92C221,238,211.46,225.3,198.23,212.1c-22.73-22.7-48.33-38.28-74.4-45.29-8.11-2.18-11.71-2.58-23.57-2.59-12.54,0-14.84.26-22,2.65-34,11.37-49.93,49.35-34.7,82.93,3.62,8,8.22,14.87,22.58,33.79a421.5,421.5,0,0,1,32.49,49.2c7.18,12.62,11.58,17.8,15.14,17.8,1,0,7.4-1.58,14.17-3.52Z" transform="translate(-30.79 -34.59)"/><path id="path2570" class="cls-2" d="M130.68,401.66c23.28-8.57,50.55-15.15,77.58-18.73,9.7-1.29,20.23-1.72,41.5-1.72s31.8.43,41.5,1.72a371.33,371.33,0,0,1,77.91,18.85c12.11,4.46,14.83,4.42,17.46-.27,2-3.53.76-7.57-3-9.84-4.62-2.8-32.41-11.78-48.3-15.59-31.52-7.57-52.14-10-85.6-10-39.7,0-71.45,4.73-107.78,16.05-24.88,7.75-30.22,10.62-30.22,16.2,0,2.69,4.13,7.23,6.58,7.23.92,0,6.47-1.77,12.34-3.93Z" transform="translate(-30.79 -34.59)"/><path id="path2568" class="cls-2" d="M123.87,441.7c27.66-12.52,66.42-22.2,100.19-25A320,320,0,0,1,374.2,441.09l8.4,3.61,5.08-2.57c11-5.57,4.73-10.8-26.42-22.05-33.5-12.09-75.76-19.47-111.5-19.47s-78,7.38-111.5,19.47c-30.88,11.15-37.33,16.44-26.75,21.94a42.9,42.9,0,0,0,5.36,2.52,53.93,53.93,0,0,0,7-2.84Z" transform="translate(-30.79 -34.59)"/><path id="path2580" class="cls-1" d="M241.45,239.84c-8.74-26-13-42-15.31-57.75-3.47-23.49,1.21-41.57,12.74-49.2,3.57-2.36,5.28-2.8,10.88-2.8s7.31.44,10.88,2.8c15,9.94,17.72,33.94,8.1,72.2-3.34,13.28-17.94,57.5-19,57.5-.36,0-4.1-10.24-8.31-22.75Z" transform="translate(-30.79 -34.59)"/><path id="path2576" class="cls-1" d="M382.76,331.46c-1.38-.56-9.25-2.76-17.5-4.91a395,395,0,0,0-86-12.64l-17-.62.72-7.5c4-42.1,30.5-81,75.75-111.36,39.58-26.53,74.13-29.94,96.71-9.53,12.39,11.2,18,31.7,13.93,50.92-2.93,13.84-8.75,23.83-31.75,54.55-6.29,8.41-15.21,21.35-19.81,28.75-8.81,14.16-9.34,14.6-15,12.34Z" transform="translate(-30.79 -34.59)"/><path id="path2574" class="cls-1" d="M101.83,319.2C97.2,311.75,88.26,298.78,82,290.37c-17.81-23.79-22-30-26.29-39.22-9.08-19.38-9.17-37.78-.25-54.74,7.94-15.12,25.3-24.82,44.39-24.82,22.75,0,52.32,13.81,81,37.83,33.26,27.84,52.38,60.92,55.78,96.52l.73,7.65h-10c-28.22,0-68.45,5.95-99.05,14.58-7.15,2-14.13,3.87-15.5,4.11-2.28.41-3.28-.78-10.93-13.09Z" transform="translate(-30.79 -34.59)"/></g></g></svg>