<svg id="Livello_1" data-name="Livello 1" xmlns="http://www.w3.org/2000/svg" viewBox="0 0 449.25 439.82"><defs><style>.cls-1{fill:#010101;}.cls-2{fill:#fff;}</style></defs><title>king_white</title><g id="g2562"><path id="path2443" class="cls-1" d="M199.2,469c-37.82-2.38-72.44-11-98.55-24.5-7.31-3.78-9.67-5.52-10.4-7.66-.67-2-.23-8.73,1.5-23l2.45-20.23-2.37-26.5-2.37-26.5-6-10.5a390.13,390.13,0,0,0-30.08-44.5c-16.93-21.92-22.6-31.4-27.23-45.5-2.39-7.3-2.8-10.2-2.86-20.5-.06-9.93.33-13.29,2.27-19.5,7.19-23,22.73-40,43.51-47.56,19.54-7.09,37.91-7,60.82.16,22.26,7,50.12,23.89,70.47,42.73l5.92,5.48L204,192.14c-4.57-18.12-5.42-32-2.76-44.84,2.95-14.28,9.79-27.05,18.62-34.72,4.17-3.62,16.94-10.49,19.51-10.49,1,0,1.28-4,1.28-17.5V67.09h-33v-15h33v-22h15v22h32v15h-32v34.5l7.25,3.26c16.31,7.34,26.88,21.75,31.16,42.45,2.65,12.86,1.8,26.72-2.77,44.84l-2.21,8.76,5.92-5.48A220.64,220.64,0,0,1,347.2,160c23.93-11.28,46.51-15.22,65.19-11.36,17.16,3.55,28,9.15,39.31,20.43,16.38,16.26,24,40.91,19.55,63-3.29,16.28-10,28.64-29.2,53.47A394.26,394.26,0,0,0,412,330.09l-6,10.5-2.37,26.5-2.37,26.5,2.45,20.23c1.73,14.27,2.17,21,1.5,23-.73,2.14-3.09,3.88-10.4,7.66-27,14-60.12,22-101,24.57-18.94,1.18-75.28,1.14-94.5-.07Z" transform="translate(-23.27 -30.09)"/><path id="path2397" class="cls-2" d="M249,264.34c.29-1,4.2-12.33,8.7-25.25,17-48.77,18.55-54.61,19.65-71.54,1.11-17.25-2.2-29.15-10.86-39-5-5.71-12.47-9.46-18.77-9.46s-13.75,3.75-18.78,9.46c-8.65,9.83-12,21.73-10.85,39,1.09,16.93,2.69,22.77,19.65,71.54,4.49,12.92,8.4,24.29,8.69,25.25s.86,1.75,1.29,1.75S248.7,265.3,249,264.34Z" transform="translate(-23.27 -30.09)"/><path id="path2395" class="cls-2" d="M397.62,320c6.47-11.73,19.86-31.47,32.17-47.43,18.7-24.25,23.64-34.18,24.6-49.45,1.06-16.9-4-30.54-15.44-42-12-11.9-25.86-16.74-45.25-15.73-18.12.95-34.24,6.5-54.87,18.92-33.44,20.13-63.63,55.07-71.81,83.13-2,6.77-6.4,26.83-8.66,39.23l-.56,3.13,13.2.66c38.4,1.93,87.7,8.91,113.2,16,8.47,2.36,8.55,2.32,13.42-6.5Z" transform="translate(-23.27 -30.09)"/><path id="path2393" class="cls-2" d="M121.2,324.22A593.45,593.45,0,0,1,216.7,311c11.27-.64,20.6-1.24,20.72-1.34.51-.42-6.83-34.68-9-42.18-8.25-28.13-38.4-63-71.83-83.13-20.63-12.42-36.74-18-54.86-18.92-19.4-1-33.31,3.83-45.25,15.73C45,192.61,39.92,206.3,41,223.09c1,15.52,6.19,25.8,25.34,50.51,11.68,15.07,25,34.76,31.37,46.43C102.9,329.46,100.33,329,121.2,324.22Z" transform="translate(-23.27 -30.09)"/><path id="path2391" class="cls-2" d="M152.56,370.63a442,442,0,0,1,218.86,7.27l13,3.78,1.22-15c.66-8.28,1.45-16.44,1.74-18.13l.52-3.07-14.33-3.25a574.13,574.13,0,0,0-251.65,0l-14.33,3.25.53,3.07c.28,1.69,1.07,9.85,1.74,18.13l1.21,15L124,377.9C131.1,375.81,144,372.54,152.56,370.63Z" transform="translate(-23.27 -30.09)"/><path id="path2389" class="cls-2" d="M149.2,407.08c36.73-9.52,59.76-12.43,98.5-12.43,21.19,0,32.21.46,43,1.78A431.25,431.25,0,0,1,374,415.35c9.91,3.41,12.66,4,12.3,2.82a84.9,84.9,0,0,1-1.14-8.82c-.37-4-1.18-7.89-1.8-8.7-1.38-1.82-23.66-8.38-42.29-12.45-70.2-15.35-145.79-12.88-214.17,7-7.52,2.18-14.17,4.64-14.79,5.45s-1.42,4.73-1.8,8.7a84.89,84.89,0,0,1-1.14,8.82c-.36,1.22,2.39.59,12.3-2.82,7-2.41,19.52-6.13,27.77-8.27Z" transform="translate(-23.27 -30.09)"/><path id="path2387" class="cls-2" d="M293.7,451c19.4-1.21,39.53-4,53.5-7.38,12.46-3,27.93-8.57,26.82-9.6s-21.14-7.4-32.82-10.34c-32.91-8.26-56.66-11.08-93.5-11.08s-60.6,2.82-93.5,11.08c-11.69,2.94-31.64,9.22-32.83,10.34s14.36,6.56,26.83,9.6c13.07,3.18,34.74,6.29,51,7.31C218.42,452.19,274.76,452.23,293.7,451Z" transform="translate(-23.27 -30.09)"/></g></svg>