<svg id="Livello_1" data-name="Livello 1" xmlns="http://www.w3.org/2000/svg" viewBox="0 0 447.26 443.65"><defs><style>.cls-1{fill:#010101;}.cls-2{fill:#fff;}</style></defs><title>knight_white</title><g id="g2417"><path id="path2452" class="cls-1" d="M154.38,470.75c-8.08-4-9.28-27.81-2.43-48,5.86-17.22,12.62-26.32,38.46-51.77,23.28-22.93,29.48-30.48,36.72-44.7,8.65-17,12.05-30.4,13-51,.32-7.29.34-13.25.05-13.25s-5.2,2.85-10.9,6.34-18.53,10.48-28.52,15.55c-37.9,19.24-43.85,24.89-60.76,57.69a132.6,132.6,0,0,1-10.19,16.78c-7.88,10-20.56,17.64-29.45,17.64-3.79,0-10.75-2.61-14.43-5.42A19.59,19.59,0,0,1,81,364.22c-1.63-3.63-2.24-4.07-6.45-4.69-28.71-4.23-49.06-29.2-46.81-57.42,1.45-18.14,9.61-36.28,30.14-67,14-21,19.76-31.19,23.68-42.24,2-5.73,2.27-8.28,2.3-24.88l0-18.5,3.24-6.84c2.7-5.7,5.54-9.12,17-20.5,7.58-7.51,15.08-15.59,16.68-18l2.9-4.3-2.2-27.7c-3-38.18-3-38.08,3.18-40.69,4.23-1.78,4-1.88,36,17.36C175.44,57.76,187.85,65,188.27,65s8.32-8.09,17.56-18c13.92-14.9,17.39-18.09,20.26-18.63,6.11-1.15,7.55.9,20,28.22l11.4,25,6.2-.91c8.91-1.31,30.6-.15,41.86,2.22a156.77,156.77,0,0,1,57.21,24.77c11,7.79,28.66,25.67,36.84,37.26,17.69,25.05,30.51,53.08,42.26,92.42C462,305,474.44,384,474.77,446.73c.1,19.77.06,20.27-2.17,22.5l-2.28,2.29-156.72.24c-123.65.19-157.25,0-159.22-1Z" transform="translate(-27.54 -28.18)"/><path id="path2390" class="cls-2" d="M155,65.86c-8.85-5.31-16.21-9.54-16.37-9.39s.26,7.47.92,16.26l1.19,16,15.17-6.6L171,75.52,155,65.86Z" transform="translate(-27.54 -28.18)"/><path id="path2421" class="cls-2" d="M458,453.47c2.89-2.88,2.89-3-.22-42.45C452,337.34,434,250.63,414.17,200.52c-5.81-14.67-16.89-35.65-24.56-46.5-16.46-23.29-40.93-42.35-65.82-51.29-14.92-5.36-26.48-7.22-44.41-7.12-10.72.06-19.12.63-24,1.64-4.1.85-8,1.35-8.62,1.11s-4.67-8.18-9-17.64-8.92-19.64-10.29-22.63l-2.48-5.44-15.59,16.1-15.59,16.1L166.71,96.54l-27.16,11.69L133,117a163.65,163.65,0,0,1-16.6,18c-14.83,13.68-14.51,12.94-14.6,34-.06,15.06-.38,18.54-2.3,25C95.71,206.75,87.28,222.64,73,244c-15.7,23.45-23.86,39-26.19,50-2,9.32-1.4,21,1.36,27.11C53,332,65,340.59,76.7,341.69l6.42.6,6.7-8.89c3.68-4.88,7.68-9.43,8.88-10.09,4.84-2.71,10.06-1,12.15,4,1.77,4.19.89,6.21-7.6,17.52-3.85,5.12-6.85,10.07-6.68,11,.58,3.06,6.8,2.7,11.44-.66,6.42-4.65,10.71-10.66,19.43-27.21,4.47-8.49,10.08-18.18,12.47-21.53,9.17-12.87,23-22.89,51.81-37.53,28.34-14.4,53.4-30.38,60.8-38.77,8.72-9.89,12.42-21.42,11.55-36-.65-11,.46-14.23,5.4-15.95,2.5-.87,3.83-.78,6.46.47,4.18,2,5.47,5.43,6.16,16.44,1.06,16.8-6.47,36.65-18.57,49l-6.64,6.76.8,6.37c1.2,9.5,0,31.09-2.3,41.38-4.54,20.28-13.07,39.59-24.24,54.84-3.31,4.53-15.67,17.74-27.74,29.66-21.53,21.27-27.76,28.8-32.65,39.5a68.52,68.52,0,0,0-5.36,25.25V454H306.82c93.21,0,141.65.34,142.06,1,1.21,2,6.53,1,9.13-1.55Z" transform="translate(-27.54 -28.18)"/><path id="path2423" class="cls-1" d="M114.45,188.86c4.52-8.52,17.57-29.5,20.22-32.52,5.39-6.14,13.75-8.77,20.14-6.34,1.41.53,2.57,1.55,2.57,2.27,0,3.11-8.11,14.86-15,21.76-5.71,5.7-9.57,8.52-16,11.7a109.43,109.43,0,0,1-10.81,4.83c-2.18.61-2.26.5-1.09-1.7Z" transform="translate(-27.54 -28.18)"/><path id="path2425" class="cls-1" d="M52.57,311.38c.38-7.92,1-11.14,3.07-15.64,2.73-6,7.18-9.71,11.53-9.72,5.63,0,11.2,5.62,11.2,11.3,0,4.31-4.31,9-15.39,16.56l-10.89,7.48.48-10Z" transform="translate(-27.54 -28.18)"/></g></svg>