<svg id="Livello_1" data-name="Livello 1" xmlns="http://www.w3.org/2000/svg" viewBox="0 0 430.12 425"><defs><style>.cls-1{fill:#010101;}.cls-2{fill:#fff;}</style></defs><title>knight_black</title><g id="g2397"><path id="path2396" class="cls-1" d="M157.59,455.86a77.09,77.09,0,0,1,7.56-41.36c5.12-10.15,12.11-18.38,34-40,13-12.83,23.85-24.53,27-29a141.77,141.77,0,0,0,21.66-50.23c1.93-9.07,2.52-33.8,1.06-44.05l-.83-5.79-6.17,4.39c-11.51,8.18-23.12,15-43.83,25.77-39.56,20.57-46.31,26.67-61.27,55.34-8.36,16-13.15,23.14-19.08,28.37-4.77,4.2-11.75,7.2-16.72,7.2-6.57,0-12.76-6.19-12.77-12.75V350.5H82.7a47.43,47.43,0,0,1-22.77-5.72c-20.57-10.71-27.73-33.7-18.81-60.35C45.39,271.68,49.47,264.24,65,241c16.1-24.16,21-33,25.34-45.5,3.22-9.33,3.28-9.83,3.33-27.5.07-22.53-.06-22.25,17.95-40,15.06-14.83,21.56-23.86,21.56-29.91,0-2.16-.92-15.14-2.06-28.83s-1.92-26-1.75-27.34c.3-2.3,2-1.41,30.92,15.94l30.6,18.37L209,56.86c10-10.65,18.54-19.36,19-19.36s6.24,12,12.93,26.75,12.55,26.67,13,26.56c6.73-1.52,20.93-2.47,30.2-2q53.19,2.61,91.5,41.15c23.65,23.75,39.07,51.15,54.08,96.05,21,62.83,34.72,142.81,37.08,216l.66,20.45H158.3l-.71-6.64Z" transform="translate(-37.34 -37.5)"/><path id="path2388" class="cls-2" d="M127.12,185.21c6.43-3.18,10.29-6,16-11.7,6.91-6.9,15-18.65,15-21.76,0-3.35-9.35-4.18-15.51-1.39-5.49,2.5-9.07,6.88-18.28,22.37-11.24,18.91-10.86,18.09-8,17.31A109.43,109.43,0,0,0,127.12,185.21Z" transform="translate(-37.34 -37.5)"/><path id="path2386" class="cls-2" d="M76.9,302.54a13.13,13.13,0,0,0,2.25-5.74c0-5.68-5.57-11.31-11.2-11.3-4.35,0-8.8,3.76-11.53,9.72-2.06,4.5-2.69,7.72-3.08,15.64l-.48,10,10.89-7.48c6-4.11,11.9-9,13.14-10.82Z" transform="translate(-37.34 -37.5)"/><path id="path2384" class="cls-2" d="M458.78,453c2.51-2.51,2.54-2.71,1.89-13.25-3.64-59.55-10-105.29-22.14-159.2-10.28-45.67-20.78-77.34-34.5-104-9-17.56-18-30.14-30.38-42.53-19.28-19.31-40.06-30.74-66.59-36.61-18.53-4.1-53.48-2.71-58.9,2.34-2.95,2.74-2.43,8.42,1,11,2.38,1.77,3,1.79,12.5.36,37.43-5.64,72,5.22,99.64,31.26,27.07,25.53,46,68.31,62.24,140.22,11.73,52.09,18.17,97.19,21.65,151.5,1,15.07,1.32,17.25,3.2,19.25C451.23,456.29,455.57,456.17,458.78,453Z" transform="translate(-37.34 -37.5)"/></g></svg>