<svg id="Livello_1" data-name="Livello 1" xmlns="http://www.w3.org/2000/svg" viewBox="0 0 305.08 397.9"><defs><style>.cls-1{fill:#010101;}</style></defs><title>pawn_black</title><g id="g2393"><path id="path2505" class="cls-1" d="M98.6,442.7c-2.22-13.35-1.75-39.94,1-53.48,8.23-41.36,32.37-77.37,66.68-99.5,11-7.08,21.38-12,36.5-17.38.93-.33-1.53-2.1-6.5-4.68a68.85,68.85,0,0,1-28.86-29.73c-6-12.17-8-21.41-7.32-34,1-18,7.66-32.94,20.68-46,11.64-11.7,30-20,44.36-20h5l-5.44-2.7c-7.1-3.51-15.86-12.34-19.34-19.46A42,42,0,0,1,213,67.53c19.31-19.31,54.11-19.31,73.42,0a42,42,0,0,1,7.68,48.26c-3.47,7.12-12.24,16-19.33,19.46l-5.45,2.7h5c14.33,0,32.71,8.28,44.35,20,13,13.08,19.71,28,20.69,46,.68,12.57-1.31,21.81-7.32,34a68.87,68.87,0,0,1-28.87,29.73c-5,2.58-7.43,4.35-6.5,4.68,15.13,5.35,25.53,10.3,36.5,17.38,34.32,22.13,58.45,58.14,66.68,99.5,2.7,13.54,3.17,40.13,1,53.48L399.49,451H100L98.6,442.7Z" transform="translate(-97.19 -53.05)"/></g></svg>