<svg id="Livello_1" data-name="Livello 1" xmlns="http://www.w3.org/2000/svg" viewBox="0 0 322.73 415.88"><defs><style>.cls-1{fill:#010101;}.cls-2{fill:#fff;}</style></defs><title>pawn_white</title><g id="g2407"><path id="path2558" class="cls-1" d="M97.41,458c-6.1-2.46-8.65-14.33-8.67-40.49,0-21.65,1.5-31.06,8.34-51.61,13-39,41.4-72.77,76.59-91l10.06-5.22-5.06-4.12c-10.79-8.79-20.39-23.95-24.75-39.06-1.86-6.47-2.28-10.28-2.23-20.45.06-10.86.43-13.61,2.84-21,7.54-23.07,20.75-38.57,41.58-48.82l9.5-4.68-4.23-6.3a51.18,51.18,0,0,1-7.28-41.93c4.24-15.73,12.73-26.07,27.3-33.25,18.81-9.27,38.61-9.27,57.42,0,14.57,7.18,23.06,17.52,27.3,33.25a51.18,51.18,0,0,1-7.28,41.93l-4.23,6.3,9.5,4.68c20.83,10.25,34,25.75,41.58,48.82,2.41,7.39,2.78,10.14,2.84,21,0,10.17-.37,14-2.23,20.45-4.36,15.11-14,30.27-24.75,39.06l-5.06,4.12,10.06,5.22c35.19,18.27,63.61,52,76.59,91,6.84,20.55,8.36,30,8.33,51.61,0,26.65-2.56,38.11-9,40.55-3.23,1.22-302,1.17-305.07-.06h0Z" transform="translate(-88.73 -43.06)"/><path id="path2384" class="cls-2" d="M392.83,438.25c.42-1.51.74-11.07.7-21.25-.07-20.62-1.75-31.25-7.55-47.69-14.2-40.25-47.26-73.64-86.88-87.76-10-3.54-11.78-4.85-12.57-9-1-5.21,1.26-7.7,11.27-12.52,31.24-15.08,42.62-53.88,24.81-84.6-4.83-8.33-16.11-18.59-25.64-23.31-8-3.94-12.1-5-26-6.61-5.14-.6-8.53-3.15-9.54-7.17s1.51-7.45,8.6-11c8-4.05,13.36-9.18,16.84-16.26,2.36-4.8,2.7-6.7,2.7-15s-.33-10.18-2.78-15.16c-3.45-7-9-12.12-17.6-16.2-6.32-3-7.18-3.14-19.12-3.14s-12.8.14-19.12,3.14c-8.61,4.08-14.15,9.18-17.6,16.2-2.45,5-2.78,6.8-2.78,15.16s.34,10.2,2.7,15c3.48,7.08,8.79,12.21,16.84,16.26,7.09,3.58,9.65,6.86,8.6,11s-4.4,6.57-9.54,7.17c-13.87,1.61-18,2.67-26,6.61-9.53,4.72-20.81,15-25.64,23.31a64.16,64.16,0,0,0-7.52,42.47C173,235.32,185.79,252,202.4,260c10,4.82,12.24,7.31,11.27,12.52-.79,4.2-2.61,5.51-12.57,9-39.62,14.12-72.68,47.51-86.88,87.76-5.8,16.44-7.48,27.07-7.55,47.69,0,10.18.28,19.74.7,21.25l.77,2.75H392.06Z" transform="translate(-88.73 -43.06)"/></g></svg>