<svg id="Livello_1" data-name="Livello 1" xmlns="http://www.w3.org/2000/svg" viewBox="0 0 491.59 462.1"><defs><style>.cls-1{fill:#010101;}.cls-2{fill:#fff;}</style></defs><title>king_white</title><g id="g2496"><path id="path2396" class="cls-1" d="M184.05,481.9c-29.18-1.53-57-8.5-78.35-19.6-10.41-5.43-13.65-8.39-13.65-12.48,0-1.39,4.27-12.32,9.49-24.31L111,403.72l-8.92-20.48-8.92-20.49L74.95,340.42c-10-12.28-18.7-22.92-19.26-23.65S49.92,277.42,44.1,231L33.53,146.48l-6.61-2.22c-8.08-2.72-13.15-6.46-17-12.54C3.08,121,2.42,109.37,8,98c5.72-11.61,16.18-17.82,30-17.82s24.33,6.21,30,17.82c6.63,13.46,4.67,25.65-6.43,40.08-.58.75,9.25,22,28,60.52L118.53,258l4.2-72.95c2.3-40.12,4.22-74.41,4.25-76.18.06-2.75-.49-3.52-3.68-5.17a35,35,0,0,1-15.46-15.87c-8.4-17.07-1-36.42,17.21-45.1,11.28-5.37,25.13-2.93,35.71,6.29a36.73,36.73,0,0,1,7.5,10.35c2.84,5.77,3.29,7.72,3.29,14.23s-.45,8.46-3.29,14.23A35.8,35.8,0,0,1,160.93,98l-4,3.45,24.83,72.07c13.66,39.64,25.08,72.08,25.37,72.09s6.86-36.32,14.57-80.72l14-80.74-4.29-2.84a32.27,32.27,0,0,1-14.83-27.71C216.54,40.13,224,29,237,22.73a31.78,31.78,0,0,1,26,0c8.15,3.88,13.45,9,17.21,16.64,2.84,5.77,3.29,7.72,3.28,14.21a32.27,32.27,0,0,1-14.83,27.71l-4.29,2.84,14,80.74c7.71,44.4,14.27,80.73,14.57,80.72s11.71-32.45,25.37-72.09l24.83-72.07-4-3.45a35.8,35.8,0,0,1-7.33-10.14c-8.4-17.07-1-36.42,17.21-45.1a31.78,31.78,0,0,1,26,0c8.15,3.88,13.45,9,17.21,16.64,2.84,5.77,3.29,7.72,3.29,14.23s-.45,8.46-3.29,14.23A35,35,0,0,1,376.8,103.7c-3.19,1.65-3.74,2.42-3.68,5.17,0,1.77,2,36.06,4.25,76.18l4.2,72.95,28.88-59.37c18.74-38.53,28.57-59.77,28-60.52C427.34,123.68,425.38,111.49,432,98c5.71-11.61,16.18-17.82,30-17.82s24.33,6.21,30,17.82c5.59,11.34,4.93,22.94-1.89,33.69-3.87,6.08-8.94,9.82-17,12.54l-6.61,2.22L456,231c-5.82,46.46-11,85.08-11.59,85.81s-9.23,11.37-19.26,23.65l-18.24,22.33L398,383.24l-8.92,20.48,9.49,21.79c5.22,12,9.49,22.92,9.49,24.31,0,4.09-3.24,7-13.65,12.48-16.52,8.6-36.61,14.69-59.29,18-8.52,1.23-23.61,1.57-78.06,1.72-37.12.11-70,.07-73-.09Z" transform="translate(-4.25 -19.95)"/><path id="path2411" class="cls-2" d="M258.13,67.32c5.18-3.49,7.92-8.24,7.92-13.73,0-12.21-14.27-20.34-24.08-13.73-5.18,3.49-7.92,8.24-7.92,13.73C234.05,65.8,248.32,73.93,258.13,67.32Z" transform="translate(-4.25 -19.95)"/><path id="path2409" class="cls-2" d="M370.13,87.32c5.18-3.49,7.92-8.24,7.92-13.73s-2.74-10.23-7.92-13.73c-9.81-6.61-24.08,1.52-24.08,13.73S360.32,93.93,370.13,87.32Z" transform="translate(-4.25 -19.95)"/><path id="path2407" class="cls-2" d="M146.13,87.32c10.64-7.17,10.64-20.28,0-27.45-9.81-6.61-24.08,1.52-24.08,13.73S136.32,93.93,146.13,87.32Z" transform="translate(-4.25 -19.95)"/><path id="path2405" class="cls-2" d="M470,126.84c5.18-2.6,8-7.47,8-13.74,0-9.23-6.47-15.5-16-15.5s-16,6.27-16,15.5,6.47,15.49,16,15.49A21,21,0,0,0,470,126.84Z" transform="translate(-4.25 -19.95)"/><path id="path2403" class="cls-2" d="M46,126.84c10.82-5.43,10.82-22.06,0-27.49a19.8,19.8,0,0,0-16,0c-10.82,5.43-10.82,22.06,0,27.49a21,21,0,0,0,8,1.75A21,21,0,0,0,46,126.84Z" transform="translate(-4.25 -19.95)"/><path id="path2401" class="cls-2" d="M229,267a83.81,83.81,0,0,0,11.08-7.34c9-7.47,11.33-7.56,19.13-.74,4.45,3.9,18.6,12.34,19.3,11.52.47-.55-27.86-162.85-28.43-162.85-.28,0-6.75,36.11-14.4,80.25s-14.1,80.81-14.35,81.5C220.59,271.27,221.85,270.89,229,267Z" transform="translate(-4.25 -19.95)"/><path id="path2399" class="cls-2" d="M364.58,273.85c-.33-3.72-2.38-38.93-4.56-78.25s-4.08-72.69-4.22-74.15-11.34,29.55-26.65,74c-14.52,42.16-26.64,77.28-26.92,78.06-.86,2.34,13,.49,22.79-3,12.51-4.51,14.34-4.63,18.78-1.22,3.72,2.84,19,11.27,20.56,11.33C364.81,280.58,364.9,277.56,364.58,273.85Z" transform="translate(-4.25 -19.95)"/><path id="path2397" class="cls-2" d="M143.32,277a104.6,104.6,0,0,0,12-7.11c5.61-4.09,6.87-4,19.75.59,9.81,3.54,23.65,5.39,22.79,3-.28-.78-12.4-35.9-26.92-78.06-15.31-44.45-26.51-75.53-26.65-74s-2,34.82-4.22,74.15-4.23,74.53-4.56,78.25-.33,6.75,0,6.75a78.28,78.28,0,0,0,7.81-3.62Z" transform="translate(-4.25 -19.95)"/><path id="path2394" class="cls-2" d="M438,231.1c4.4-35.15,7.87-64,7.71-64.19s-55.92,113.73-57.44,117.6c-.46,1.19,1.08,1.28,9.87.59,17.73-1.38,16.73-1.57,24.47,4.71,3.82,3.1,7,5.53,7.16,5.41S433.59,266.24,438,231.1Z" transform="translate(-4.25 -19.95)"/><path id="path2392" class="cls-2" d="M84.6,284.77c2-1,4-1.09,9.43-.25,9.7,1.51,18.37,1.42,17.74-.17-1.48-3.8-57.12-117.69-57.37-117.44s3.29,28.84,7.66,63.74,8,63.81,8,64.26,2.72-1.35,6-4a81.48,81.48,0,0,1,8.54-6.14Z" transform="translate(-4.25 -19.95)"/><path id="path2390" class="cls-2" d="M111.12,345a426.61,426.61,0,0,1,277.87,0c4.1,1.41,7.77,2.22,8.16,1.8C399.58,344.28,424,314,424,313.6s-3.23-3-7.14-6.08l-7.11-5.57-5.59.92c-17.34,2.85-42.85-2.75-61.38-13.48L336,285.46,328.26,288c-25.17,8.26-50.44,4.76-73-10.12l-5.25-3.47-5.25,3.47a87.63,87.63,0,0,1-42.3,14.41c-10.35.68-19.36-.58-30.66-4.29l-7.71-2.53-6.79,3.93c-18.53,10.73-44,16.33-61.38,13.48l-5.59-.92-7.11,5.57c-3.91,3.07-7,5.89-6.91,6.28.17.61,26.91,33.8,27.23,33.8C103.65,347.6,107,346.45,111.12,345Z" transform="translate(-4.25 -19.95)"/><path id="path2510" class="cls-2" d="M149.25,383.76a324.27,324.27,0,0,1,201.6,0c8.42,2.72,17.27,5.79,19.67,6.82,3.17,1.36,4.51,1.55,4.87.7.27-.65,3.18-7.31,6.45-14.81l6-13.62-3.62-1.16c-67-21.42-125.78-27-191.62-18-24.83,3.36-47.34,8.66-76.62,18l-3.62,1.16,5.95,13.62c3.27,7.5,6.18,14.16,6.45,14.81.36.85,1.7.66,4.87-.7,2.4-1,11.25-4.1,19.67-6.82Z" transform="translate(-4.25 -19.95)"/><path id="path2512" class="cls-2" d="M149.55,425.08a460.59,460.59,0,0,1,60.5-10.64c16.29-1.71,63.71-1.71,80,0,27.32,2.87,65.82,10.76,85.75,17.56,4,1.36,7.25,2.3,7.25,2.07s-2.19-5.48-4.87-11.69c-5.79-13.43-4.87-12.78-30.35-21.23a334.71,334.71,0,0,0-58.78-13.23c-17.53-2.43-60.47-2.43-78,0a334.71,334.71,0,0,0-58.78,13.23c-25.48,8.45-24.56,7.8-30.35,21.23-2.68,6.21-4.87,11.47-4.87,11.69s3.26-.71,7.25-2.07,15.35-4.47,25.25-6.92Z" transform="translate(-4.25 -19.95)"/><path id="path2514" class="cls-2" d="M335.05,462.28c13.86-2,22.5-4,33.87-7.9l9.36-3.19-6.86-2.33c-11.2-3.79-37.79-10-53.87-12.66-24.9-4.06-38.43-5.08-67.5-5.08s-42.6,1-67.5,5.08c-16.08,2.62-42.67,8.87-53.87,12.66l-6.86,2.33,9.36,3.21c15.15,5.19,33.46,8.48,52.87,9.5,3,.16,35.88.2,73,.09C311.38,463.84,326.6,463.5,335.05,462.28Z" transform="translate(-4.25 -19.95)"/></g></svg>