<svg id="Livello_1" data-name="Livello 1" xmlns="http://www.w3.org/2000/svg" viewBox="0 0 491.59 462.1"><defs><style>.cls-1{fill:#010101;}.cls-2{fill:#fff;}</style></defs><title>king_black</title><g id="g2496"><path id="path2396" class="cls-1" d="M184.05,481.9c-29.18-1.53-57-8.5-78.35-19.6-10.41-5.43-13.65-8.39-13.65-12.48,0-1.39,4.27-12.32,9.49-24.31L111,403.72l-8.92-20.48-8.92-20.49L74.95,340.42c-10-12.28-18.7-22.92-19.26-23.65S49.92,277.42,44.1,231L33.53,146.48l-6.61-2.22c-8.08-2.72-13.15-6.46-17-12.54C3.08,121,2.42,109.37,8,98c5.72-11.61,16.18-17.82,30-17.82s24.33,6.21,30,17.82c6.63,13.46,4.67,25.65-6.43,40.08-.58.75,9.25,22,28,60.52L118.53,258l4.2-72.95c2.3-40.12,4.22-74.41,4.25-76.18.06-2.75-.49-3.52-3.68-5.17a35,35,0,0,1-15.46-15.87c-8.4-17.07-1-36.42,17.21-45.1,11.28-5.37,25.13-2.93,35.71,6.29a36.73,36.73,0,0,1,7.5,10.35c2.84,5.77,3.29,7.72,3.29,14.23s-.45,8.46-3.29,14.23A35.8,35.8,0,0,1,160.93,98l-4,3.45,24.83,72.07c13.66,39.64,25.08,72.08,25.37,72.09s6.86-36.32,14.57-80.72l14-80.74-4.29-2.84a32.27,32.27,0,0,1-14.83-27.71C216.54,40.13,224,29,237,22.73a31.78,31.78,0,0,1,26,0c8.15,3.88,13.45,9,17.21,16.64,2.84,5.77,3.29,7.72,3.28,14.21a32.27,32.27,0,0,1-14.83,27.71l-4.29,2.84,14,80.74c7.71,44.4,14.27,80.73,14.57,80.72s11.71-32.45,25.37-72.09l24.83-72.07-4-3.45a35.8,35.8,0,0,1-7.33-10.14c-8.4-17.07-1-36.42,17.21-45.1a31.78,31.78,0,0,1,26,0c8.15,3.88,13.45,9,17.21,16.64,2.84,5.77,3.29,7.72,3.29,14.23s-.45,8.46-3.29,14.23A35,35,0,0,1,376.8,103.7c-3.19,1.65-3.74,2.42-3.68,5.17,0,1.77,2,36.06,4.25,76.18l4.2,72.95,28.88-59.37c18.74-38.53,28.57-59.77,28-60.52C427.34,123.68,425.38,111.49,432,98c5.71-11.61,16.18-17.82,30-17.82s24.33,6.21,30,17.82c5.59,11.34,4.93,22.94-1.89,33.69-3.87,6.08-8.94,9.82-17,12.54l-6.61,2.22L456,231c-5.82,46.46-11,85.08-11.59,85.81s-9.23,11.37-19.26,23.65l-18.24,22.33L398,383.24l-8.92,20.48,9.49,21.79c5.22,12,9.49,22.92,9.49,24.31,0,4.09-3.24,7-13.65,12.48-16.52,8.6-36.61,14.69-59.29,18-8.52,1.23-23.61,1.57-78.06,1.72-37.12.11-70,.07-73-.09Z" transform="translate(-4.25 -19.95)"/><path id="path2411" class="cls-2" d="M258.13,67.32c5.18-3.49,7.92-8.24,7.92-13.73,0-12.21-14.27-20.34-24.08-13.73-5.18,3.49-7.92,8.24-7.92,13.73C234.05,65.8,248.32,73.93,258.13,67.32Z" transform="translate(-4.25 -19.95)"/><path id="path2409" class="cls-2" d="M370.13,87.32c5.18-3.49,7.92-8.24,7.92-13.73s-2.74-10.23-7.92-13.73c-9.81-6.61-24.08,1.52-24.08,13.73S360.32,93.93,370.13,87.32Z" transform="translate(-4.25 -19.95)"/><path id="path2407" class="cls-2" d="M146.13,87.32c10.64-7.17,10.64-20.28,0-27.45-9.81-6.61-24.08,1.52-24.08,13.73S136.32,93.93,146.13,87.32Z" transform="translate(-4.25 -19.95)"/><path id="path2405" class="cls-2" d="M470,126.84c5.18-2.6,8-7.47,8-13.74,0-9.23-6.47-15.5-16-15.5s-16,6.27-16,15.5,6.47,15.49,16,15.49A21,21,0,0,0,470,126.84Z" transform="translate(-4.25 -19.95)"/><path id="path2403" class="cls-2" d="M46,126.84c10.82-5.43,10.82-22.06,0-27.49a19.8,19.8,0,0,0-16,0c-10.82,5.43-10.82,22.06,0,27.49a21,21,0,0,0,8,1.75A21,21,0,0,0,46,126.84Z" transform="translate(-4.25 -19.95)"/><path id="path2401" class="cls-2" d="M229,267a83.81,83.81,0,0,0,11.08-7.34c9-7.47,11.33-7.56,19.13-.74,4.45,3.9,18.6,12.34,19.3,11.52.47-.55-27.86-162.85-28.43-162.85-.28,0-6.75,36.11-14.4,80.25s-14.1,80.81-14.35,81.5C220.59,271.27,221.85,270.89,229,267Z" transform="translate(-4.25 -19.95)"/><path id="path2399" class="cls-2" d="M364.58,273.85c-.33-3.72-2.38-38.93-4.56-78.25s-4.08-72.69-4.22-74.15-11.34,29.55-26.65,74c-14.52,42.16-26.64,77.28-26.92,78.06-.86,2.34,13,.49,22.79-3,12.51-4.51,14.34-4.63,18.78-1.22,3.72,2.84,19,11.27,20.56,11.33C364.81,280.58,364.9,277.56,364.58,273.85Z" transform="translate(-4.25 -19.95)"/><path id="path2397" class="cls-2" d="M143.32,277a104.6,104.6,0,0,0,12-7.11c5.61-4.09,6.87-4,19.75.59,9.81,3.54,23.65,5.39,22.79,3-.28-.78-12.4-35.9-26.92-78.06-15.31-44.45-26.51-75.53-26.65-74s-2,34.82-4.22,74.15-4.23,74.53-4.56,78.25-.33,6.75,0,6.75a78.28,78.28,0,0,0,7.81-3.62Z" transform="translate(-4.25 -19.95)"/><path id="path2394" class="cls-2" d="M438,231.1c4.4-35.15,7.87-64,7.71-64.19s-55.92,113.73-57.44,117.6c-.46,1.19,1.08,1.28,9.87.59,17.73-1.38,16.73-1.57,24.47,4.71,3.82,3.1,7,5.53,7.16,5.41S433.59,266.24,438,231.1Z" transform="translate(-4.25 -19.95)"/><path id="path2392" class="cls-2" d="M84.6,284.77c2-1,4-1.09,9.43-.25,9.7,1.51,18.37,1.42,17.74-.17-1.48-3.8-57.12-117.69-57.37-117.44s3.29,28.84,7.66,63.74,8,63.81,8,64.26,2.72-1.35,6-4a81.48,81.48,0,0,1,8.54-6.14Z" transform="translate(-4.25 -19.95)"/><path id="path2390" class="cls-2" d="M111.12,345a426.61,426.61,0,0,1,277.87,0c4.1,1.41,7.77,2.22,8.16,1.8C399.58,344.28,424,314,424,313.6s-3.23-3-7.14-6.08l-7.11-5.57-5.59.92c-17.34,2.85-42.85-2.75-61.38-13.48L336,285.46,328.26,288c-25.17,8.26-50.44,4.76-73-10.12l-5.25-3.47-5.25,3.47a87.63,87.63,0,0,1-42.3,14.41c-10.35.68-19.36-.58-30.66-4.29l-7.71-2.53-6.79,3.93c-18.53,10.73-44,16.33-61.38,13.48l-5.59-.92-7.11,5.57c-3.91,3.07-7,5.89-6.91,6.28.17.61,26.91,33.8,27.23,33.8C103.65,347.6,107,346.45,111.12,345Z" transform="translate(-4.25 -19.95)"/><path id="path2510" class="cls-2" d="M149.25,383.76a324.27,324.27,0,0,1,201.6,0c8.42,2.72,17.27,5.79,19.67,6.82,3.17,1.36,4.51,1.55,4.87.7.27-.65,3.18-7.31,6.45-14.81l6-13.62-3.62-1.16c-67-21.42-125.78-27-191.62-18-24.83,3.36-47.34,8.66-76.62,18l-3.62,1.16,5.95,13.62c3.27,7.5,6.18,14.16,6.45,14.81.36.85,1.7.66,4.87-.7,2.4-1,11.25-4.1,19.67-6.82Z" transform="translate(-4.25 -19.95)"/><path id="path2512" class="cls-2" d="M149.55,425.08a460.59,460.59,0,0,1,60.5-10.64c16.29-1.71,63.71-1.71,80,0,27.32,2.87,65.82,10.76,85.75,17.56,4,1.36,7.25,2.3,7.25,2.07s-2.19-5.48-4.87-11.69c-5.79-13.43-4.87-12.78-30.35-21.23a334.71,334.71,0,0,0-58.78-13.23c-17.53-2.43-60.47-2.43-78,0a334.71,334.71,0,0,0-58.78,13.23c-25.48,8.45-24.56,7.8-30.35,21.23-2.68,6.21-4.87,11.47-4.87,11.69s3.26-.71,7.25-2.07,15.35-4.47,25.25-6.92Z" transform="translate(-4.25 -19.95)"/><path id="path2514" class="cls-2" d="M335.05,462.28c13.86-2,22.5-4,33.87-7.9l9.36-3.19-6.86-2.33c-11.2-3.79-37.79-10-53.87-12.66-24.9-4.06-38.43-5.08-67.5-5.08s-42.6,1-67.5,5.08c-16.08,2.62-42.67,8.87-53.87,12.66l-6.86,2.33,9.36,3.21c15.15,5.19,33.46,8.48,52.87,9.5,3,.16,35.88.2,73,.09C311.38,463.84,326.6,463.5,335.05,462.28Z" transform="translate(-4.25 -19.95)"/></g><g id="g2466"><path id="path2611" class="cls-1" d="M178.84,474.61c-20.71-1.46-39.95-5.48-55.39-11.58-9.34-3.69-21-9.7-22-11.34-.32-.52,3.71-10.81,8.95-22.88s9.54-22.45,9.54-23.09c0-1.26-15.85-37.93-19-43.93-1-2-10-13.46-19.85-25.49l-18-21.89-1.18-9.61c-.65-5.3-5.54-44.5-10.87-87.12l-9.69-77.5-5.7-.71c-16.45-2.06-26.27-16.68-21.28-31.69,2.12-6.38,5.36-10.33,11.39-13.87,3.94-2.32,5.78-2.73,12.15-2.73s8.2.41,12.15,2.73c6,3.54,9.27,7.49,11.39,13.87a24.31,24.31,0,0,1-11.09,28.67c-1.16.64,6.24,16.63,36.68,79.27,21,43.15,38.19,78.54,38.27,78.64.2.28,10.7-187.8,10.65-190.82,0-2.25-.67-2.78-4.35-3.71A26.51,26.51,0,0,1,116.24,88c-2.42-4.12-2.82-5.86-2.82-12.37,0-6.69.36-8.16,3-12.5a24.94,24.94,0,0,1,42.94,0c2.68,4.35,3,5.8,3,12.58s-.35,8.23-3,12.58a29.26,29.26,0,0,1-8.06,8.25l-5,3.33,31.56,91.42c17.35,50.29,31.78,91.43,32.06,91.42S243.05,96.12,245.3,81.37c.06-.45-1.57-1.41-3.63-2.14a25.84,25.84,0,0,1-13.48-11.34c-2.37-4-2.77-5.81-2.77-12.29,0-6.69.36-8.16,3-12.5a24.94,24.94,0,0,1,42.94,0c2.67,4.34,3,5.81,3,12.5,0,6.48-.4,8.26-2.77,12.29a25.84,25.84,0,0,1-13.48,11.34c-2.06.73-3.69,1.69-3.63,2.13,2.25,14.75,35,201.3,35.38,201.3s14.71-41.13,32.06-91.42l31.56-91.42-5-3.33a29.26,29.26,0,0,1-8.06-8.25c-2.67-4.35-3-5.81-3-12.58s.35-8.22,3-12.58a24.94,24.94,0,0,1,42.94,0c2.67,4.34,3,5.81,3,12.5,0,6.51-.4,8.25-2.82,12.37a26.51,26.51,0,0,1-15.38,11.86c-3.68.93-4.31,1.46-4.35,3.71,0,3,10.45,191.1,10.65,190.82.08-.1,17.3-35.49,38.27-78.64,30.44-62.64,37.84-78.63,36.68-79.27a24.3,24.3,0,0,1-11.08-28.67c2.12-6.38,5.35-10.33,11.39-13.87,3.94-2.32,5.77-2.73,12.14-2.73s8.2.41,12.14,2.73c6,3.54,9.27,7.49,11.39,13.87,5,15-4.83,29.63-21.28,31.69l-5.69.71-9.69,77.5c-5.33,42.62-10.23,81.82-10.88,87.12l-1.18,9.61-18,21.89c-9.88,12-18.81,23.5-19.85,25.49-3.14,6-19,42.67-19,43.93,0,.64,4.29,11,9.54,23.09s9.27,22.36,9,22.88c-2.29,3.71-26.34,13.78-41.79,17.51-22.4,5.39-26.88,5.66-99.7,5.91-37.12.13-72.26-.1-78.08-.5Z" transform="translate(-4.25 -19.95)"/><path id="path2388" class="cls-2" d="M128.42,362.67a337.55,337.55,0,0,1,52.5-15c26.37-5.31,37.84-6.37,69-6.37s42.63,1.06,69,6.37a337.63,337.63,0,0,1,52.8,15.13c15,5.6,17.33,5.69,20.14.69,2.31-4.12.55-7.81-5-10.59-8.28-4.12-32.46-12.06-49.1-16.14-33-8.09-53.46-10.55-87.79-10.55-15.57,0-30.83.53-37,1.29-34.44,4.24-64.52,11.5-92.74,22.38-10.48,4-13.26,6.26-13.26,10.57,0,2.67,4.12,7.24,6.53,7.24C114.35,367.68,121.08,365.42,128.42,362.67Z" transform="translate(-4.25 -19.95)"/><path id="path2386" class="cls-2" d="M151.92,405.88a254.94,254.94,0,0,1,63-17.88c16-2.46,53.87-2.47,70,0a265.55,265.55,0,0,1,68.41,20.18c10.27,4.55,12.34,5.15,14.79,4.3,5.51-1.92,6.5-8.18,1.91-12-6.92-5.82-40.52-18.32-62.11-23.1-22.62-5-32.89-6.09-58-6.09s-35.38,1.08-58,6.09c-21.59,4.78-55.19,17.28-62.11,23.1-4.52,3.8-3.78,9.56,1.5,11.78,2.55,1.07,3.62,1.07,6.1,0,1.66-.74,8.19-3.57,14.51-6.29Z" transform="translate(-4.25 -19.95)"/><path id="path2384" class="cls-2" d="M119.72,457.29c5.19-2.68,34.81-12.38,47.2-15.46a385.11,385.11,0,0,1,46.5-8.33c14.35-1.69,58.65-1.69,73,0,31.86,3.77,61,11,88.71,21.83l8.71,3.43,4.09-2.09c4.57-2.33,5.5-3.85,4.58-7.49-.81-3.25-6.18-5.92-24.59-12.27-78.2-27-157.8-27-236,0-18.41,6.35-23.78,9-24.59,12.27-.9,3.59,0,5.14,4.29,7.4,4.61,2.43,4.72,2.44,8.1.71Z" transform="translate(-4.25 -19.95)"/></g></svg>