<svg id="Livello_1" data-name="Livello 1" xmlns="http://www.w3.org/2000/svg" viewBox="0 0 341.39 395.64"><defs><style>.cls-1{fill:#010101;}.cls-2{fill:#fff;}</style></defs><title>rook_white</title><g id="g2423"><path id="path2449" class="cls-1" d="M84,447.55c-4.54-2.48-5-5.43-4.7-27.94l.31-20.74,2.81-2.42c2.54-2.18,3.71-2.41,12.25-2.41h9.44V376.29c0-15.83.21-18.07,1.93-20.75,1.07-1.65,10.5-12,21-23l19-20,0-71,0-71-23.54-17.9c-12.94-9.84-24-18.7-24.49-19.68s-1-16.48-1-36.9c0-38.41.16-39.6,5.76-41.92,2-.85,11.59-1.1,33.52-.89,38,.36,35.06-1.06,35.55,17.32L172.26,83h33.83V72.51c0-12.23,1.34-16.53,5.68-18.33,2.14-.89,12.74-1.13,40.09-.92,45.53.35,41.57-1.28,42.07,17.31L294.26,83h33.83V72c0-12.41,1.14-15.94,5.77-17.85,2-.85,11.59-1.1,33.52-.89,30.39.29,30.68.31,32.94,2.57s2.27,2.31,2.56,38.87c.24,30.24,0,37-1.13,38.72-.78,1.17-11.81,10-24.53,19.63l-23.11,17.5v142L374.21,334c11.06,11.82,20.51,22.53,21,23.82s.88,9.91.88,19.17v16.84l10,.35c15.12.52,14.52-.61,14.52,27.34,0,22,0,22.49-2.27,24.72L416,448.54l-164.72.22c-140.94.18-165.1,0-167.34-1.21h0Z" transform="translate(-79.2 -53.18)"/><path id="path2394" class="cls-2" d="M385.09,95.54V71H346.26l-.33,12.47c-.49,18.27,2,17-33,17.32-20.06.21-29-.05-31-.89-4.63-1.92-5.77-5.44-5.77-17.86V71h-52V83c0,11.18-.15,12.12-2.41,14.75l-2.41,2.8-28.27.3c-20.14.21-29.1-.05-31.14-.89-4.63-1.92-5.77-5.44-5.77-17.86V71h-39v49h270Z" transform="translate(-79.2 -53.18)"/><path id="path2427" class="cls-2" d="M355.37,147.79l12.14-9.25-58.71-.26c-32.29-.14-85.1-.14-117.35,0l-58.64.26,11.89,9.2,11.89,9.2,93.32.05,93.32.05,12.14-9.25Z" transform="translate(-79.2 -53.18)"/><path id="path2429" class="cls-2" d="M336.09,241V175h-172V307h172V241Z" transform="translate(-79.2 -53.18)"/><path id="path2431" class="cls-2" d="M364.42,349.73c-1-1.27-6.55-7.35-12.33-13.5L341.59,325H158.44l-12.75,13.5L132.93,352H366.24Z" transform="translate(-79.2 -53.18)"/><path id="path2433" class="cls-2" d="M378.09,382V370h-256v24h256Z" transform="translate(-79.2 -53.18)"/><path id="path2435" class="cls-2" d="M403.09,421.54V412h-306v19h306v-9.5Z" transform="translate(-79.2 -53.18)"/></g></svg>