<svg id="Livello_1" data-name="Livello 1" xmlns="http://www.w3.org/2000/svg" viewBox="0 0 324 378"><defs><style>.cls-1{fill:#010101;}.cls-2{fill:#fff;}</style></defs><title>rook_black</title><g id="g2399"><path id="path2406" class="cls-1" d="M87.79,420.5V402h25V359.29l21-22.36,21-22.36V165.45L130.35,147,105.9,128.5l-.05-33.75L105.79,61h57V91h52V61h70V91h52V61h57l0,33.75,0,33.75L369.24,147l-24.45,18.5V314.89l21,22.31,21,22.3,0,21.25,0,21.25h25v37h-324Z" transform="translate(-87.79 -61)"/><path id="path2392" class="cls-2" d="M385.34,132.55a8.6,8.6,0,0,0,2.45-5.05,8.63,8.63,0,0,0-2.45-5.05L382.88,120H116.7l-2.46,2.45a8.63,8.63,0,0,0-2.45,5.05,8.63,8.63,0,0,0,2.45,5.05L116.7,135H382.88Z" transform="translate(-87.79 -61)"/><path id="path2390" class="cls-2" d="M335.34,170.55a8.6,8.6,0,0,0,2.45-5.05,8.63,8.63,0,0,0-2.45-5.05L332.88,158H166.7l-2.46,2.45a8.63,8.63,0,0,0-2.45,5.05,8.63,8.63,0,0,0,2.45,5.05L166.7,173H332.88Z" transform="translate(-87.79 -61)"/><path id="path2388" class="cls-2" d="M335.34,319.55a6.43,6.43,0,0,0,0-10.1L332.88,307H166.7l-2.46,2.45a6.43,6.43,0,0,0,0,10.1L166.7,322H332.88Z" transform="translate(-87.79 -61)"/><path id="path2386" class="cls-2" d="M376.88,365.72c4.34-3.34,4.6-8.07.64-11.75-2.07-1.94-4.21-2-127.73-2s-125.66,0-127.73,2c-4,3.68-3.7,8.41.64,11.75C125,367.49,374.57,367.49,376.88,365.72Z" transform="translate(-87.79 -61)"/><path id="path2384" class="cls-2" d="M376.88,407.72c4.34-3.34,4.6-8.07.64-11.75-2.07-1.94-4.21-2-127.73-2s-125.66,0-127.73,2c-4,3.68-3.7,8.41.64,11.75C125,409.49,374.57,409.49,376.88,407.72Z" transform="translate(-87.79 -61)"/></g></svg>